<svg xmlns="http://www.w3.org/2000/svg" width="1200" height="630" viewBox="0 0 1200 630">
  <defs>
    <linearGradient id="bg" x1="0" y1="0" x2="1200" y2="630" gradientUnits="userSpaceOnUse">
      <stop offset="0" stop-color="#f5f8fa"/>
      <stop offset="1" stop-color="#eaf1f8"/>
    </linearGradient>
  </defs>
  <rect width="1200" height="630" fill="url(#bg)"/>

  <g transform="translate(100,120)">
    <g transform="scale(3.4)">
      <path d="M6 2h9l5 5v15a1 1 0 0 1-1 1H6a1 1 0 0 1-1-1V3a1 1 0 0 1 1-1z" fill="#2f7ed8"/>
      <path d="M15 2v5h5" fill="#f5f8fa"/>
    </g>
    <text x="90" y="60" font-family="Arial, Helvetica, sans-serif" font-size="56" font-weight="700" fill="#2f7ed8">docracy</text>
  </g>

  <text x="100" y="330" font-family="Arial, Helvetica, sans-serif" font-size="54" font-weight="700" fill="#24313f">Sign it. Send it. It disappears.</text>

  <text x="100" y="400" font-family="Arial, Helvetica, sans-serif" font-size="28" fill="#5c6b78">Free, no-signup, sequential e-signature tool.</text>
  <text x="100" y="440" font-family="Arial, Helvetica, sans-serif" font-size="28" fill="#5c6b78">No accounts. No dashboard. Documents self-delete when done.</text>

  <g transform="translate(100,490)">
    <rect x="0" y="0" width="340" height="48" rx="6" fill="#ffffff" stroke="#dfe4e8"/>
    <text x="20" y="31" font-family="Arial, Helvetica, sans-serif" font-size="20" font-weight="600" fill="#3a4b5a">Tamper-evident audit trail</text>
  </g>
</svg>
